<?xml version="1.0" encoding="utf-8"?>
<!-- Generator: Adobe Illustrator 19.2.1, SVG Export Plug-In . SVG Version: 6.00 Build 0)  -->
<svg version="1.1" id="Layer_1" xmlns="http://www.w3.org/2000/svg" xmlns:xlink="http://www.w3.org/1999/xlink" x="0px" y="0px"
	 viewBox="0 0 107.02 150.03" style="enable-background:new 0 0 107.02 150.03;" xml:space="preserve">
<style type="text/css">
	.st0{fill:#B3C471;}
	.st1{fill:#CAD681;}
	.st2{fill:#585948;}
	.st3{fill:#7D1F4D;}
	.st4{fill:#FFFFFF;}
	.st5{fill:#5CD7FF;}
	.st6{fill:#7BF0D3;}
	.st7{fill:#4579B3;}
	.st8{fill:#E75C54;}
	.st9{fill:#FFE75B;}
	.st10{fill:#C55049;}
	.st11{fill:#E3B347;}
	.st12{fill:#A54242;}
	.st13{fill:#F7CC46;}
	.st14{fill:#E5B72D;}
	.st15{fill:#644E35;}
	.st16{opacity:0.2;}
	.st17{fill:#E5A13F;}
	.st18{fill:#A0A1A4;}
	.st19{fill:#6A5C4F;}
	.st20{fill:#D8F0F3;}
	.st21{fill:#64574B;}
	.st22{fill:#B6D7E0;}
	.st23{fill:#564B40;}
	.st24{fill:#99BCC8;}
	.st25{fill:#49494B;}
	.st26{fill:#EAFFFF;}
	.st27{fill:#756557;}
	.st28{fill:#383A3B;}
	.st29{fill:#2EB67F;}
	.st30{fill:#6D6D70;}
	.st31{fill:#59595B;}
	.st32{fill:#51DEFF;}
	.st33{fill:#40E0D6;}
	.st34{fill:#8FD7FF;}
	.st35{fill:#40CFE9;}
	.st36{fill:#3ED1BC;}
	.st37{fill:#8EB9FF;}
	.st38{fill:#425DB4;}
</style>
<g>
	<g>
		<g>
			<path class="st19" d="M82.68,118.691c-2.28,16.57-16.49,29.32-33.68,29.32c-18.78,0-34-15.22-34-34v-19h0.53h66.61H83v14.6v4.4
				C83,115.601,82.89,117.161,82.68,118.691z"/>
		</g>
	</g>
	<g>
		<g>
			<polygon class="st20" points="82.14,95.011 15.53,95.011 15,95.011 15,62.011 83,62.011 83,67.601 83,76.531 83,95.011 			"/>
		</g>
	</g>
	<g>
		<g>
			<path class="st21" d="M82.14,95.011H63v14.6v4.4c0,1.59-0.11,3.15-0.32,4.68c-1.819,13.218-11.232,23.997-23.69,27.82
				c3.165,0.973,6.526,1.5,10.01,1.5c17.19,0,31.4-12.75,33.68-29.32c0.21-1.53,0.32-3.09,0.32-4.68v-4.4v-14.6H82.14z"/>
		</g>
	</g>
	<g>
		<g>
			<polygon class="st22" points="63,62.011 63,95.011 82.14,95.011 83,95.011 83,76.531 83,67.601 83,62.011 			"/>
		</g>
	</g>
	<g>
		<g>
			<path class="st23" d="M82.14,95.011H73v14.6v4.4c0,1.59-0.11,3.15-0.32,4.68c-2.055,14.933-13.8,26.759-28.683,28.951
				c1.633,0.241,3.303,0.369,5.003,0.369c17.19,0,31.4-12.75,33.68-29.32c0.21-1.53,0.32-3.09,0.32-4.68v-4.4v-14.6H82.14z"/>
		</g>
	</g>
	<g>
		<g>
			<polygon class="st24" points="73,62.011 73,95.011 82.14,95.011 83,95.011 83,62.011 			"/>
		</g>
	</g>
	<g>
		<g>
			<path class="st25" d="M82.91,76.531v-8.93h0.53c12.3,2.42,21.56,12.91,21.56,25.47c0,12.85-9.68,23.52-22.41,25.62
				c0.21-1.53,0.32-3.09,0.32-4.68v-4.4c7.48-2.06,12.95-8.69,12.95-16.54C95.86,85.211,90.39,78.581,82.91,76.531z"/>
		</g>
	</g>
	<g>
		<g>
			<polygon class="st26" points="30.904,62.011 26,62.011 26,95.011 30.908,95.011 31,95.011 31,62.011 			"/>
		</g>
	</g>
	<g>
		<g>
			<path class="st27" d="M31,142.853V95.011h-0.096H26v44.036C27.542,140.464,29.216,141.737,31,142.853z"/>
		</g>
	</g>
	<g>
		<path class="st28" d="M90,146.011h-5c-1.104,0-2,0.896-2,2s0.896,2,2,2h5c1.104,0,2-0.896,2-2S91.104,146.011,90,146.011z"/>
		<path class="st28" d="M13,146.011H8c-1.104,0-2,0.896-2,2s0.896,2,2,2h5c1.104,0,2-0.896,2-2S14.104,146.011,13,146.011z"/>
		<path class="st28" d="M32.36,41.911c0.275,0.129,0.563,0.19,0.849,0.19c0.751,0,1.472-0.426,1.812-1.151
			c0.469-1,0.039-2.191-0.961-2.66c-0.972-0.456-1.6-1.44-1.6-2.509c0-1.527,1.243-2.77,2.771-2.77S38,34.254,38,35.781v13.32
			c0,1.104,0.896,2,2,2s2-0.896,2-2v-13.32c0-3.733-3.037-6.77-6.77-6.77c-3.733,0-6.771,3.037-6.771,6.77
			C28.46,38.394,29.991,40.8,32.36,41.911z"/>
		<path class="st28" d="M55.46,37.781v13.32c0,1.104,0.896,2,2,2s2-0.896,2-2v-13.32c0-1.527,1.243-2.77,2.771-2.77
			S65,36.254,65,37.781c0,1.069-0.628,2.054-1.6,2.509c-1,0.469-1.43,1.66-0.961,2.66c0.34,0.726,1.061,1.151,1.812,1.151
			c0.285,0,0.573-0.061,0.849-0.19c2.369-1.111,3.9-3.518,3.9-6.13c0-3.733-3.037-6.77-6.77-6.77
			C58.497,31.011,55.46,34.048,55.46,37.781z"/>
		<path class="st28" d="M49,47.101c1.104,0,2-0.896,2-2v-13.32v-10c0-1.527,1.243-2.77,2.771-2.77s2.77,1.243,2.77,2.77
			c0,1.069-0.628,2.054-1.6,2.509c-1,0.469-1.43,1.66-0.961,2.66c0.34,0.726,1.061,1.151,1.812,1.151
			c0.285,0,0.573-0.061,0.849-0.19c2.369-1.111,3.9-3.518,3.9-6.13c0-3.733-3.037-6.77-6.77-6.77c-3.733,0-6.771,3.037-6.771,6.77
			v10v13.32C47,46.205,47.895,47.101,49,47.101z"/>
		<path class="st28" d="M51,137.011c-13.233,0-24-10.767-24-24c0-1.104-0.896-2-2-2s-2,0.896-2,2c0,15.439,12.561,28,28,28
			c1.104,0,2-0.896,2-2S52.104,137.011,51,137.011z"/>
		<path class="st28" d="M85,65.876v-3.865c0-1.104-0.896-2-2-2H15c-1.104,0-2,0.896-2,2v52c0,13.921,7.948,26.013,19.539,32H22
			c-1.104,0-2,0.896-2,2s0.896,2,2,2h54c1.104,0,2-0.896,2-2s-0.896-2-2-2H65.415c9.737-5.023,16.999-14.363,19.016-25.619
			c13.213-2.833,22.658-14.105,22.658-27.321C107.09,80.176,97.864,68.911,85,65.876z M85,79.39c5.377,2.502,8.95,7.809,8.95,13.68
			c0,5.863-3.573,11.169-8.95,13.677V79.39z M81,64.011v29H17v-29H81z M49,146.011c-17.645,0-32-14.355-32-32v-17h64v17
			c0,1.324-0.094,2.656-0.256,3.97c-0.086,0.224-0.134,0.466-0.134,0.72c0,0.056,0.012,0.109,0.017,0.164
			C78.266,134.372,64.755,146.011,49,146.011z M84.927,116.146c0.042-0.712,0.073-1.425,0.073-2.135v-2.941
			c7.696-2.768,12.95-9.965,12.95-17.999c0-8.042-5.254-15.239-12.95-18v-5.059c10.586,2.917,18.09,12.33,18.09,23.059
			C103.09,103.935,95.591,113.261,84.927,116.146z"/>
	</g>
</g>
</svg>
