<?xml version="1.0" encoding="utf-8"?>
<!-- Generator: Adobe Illustrator 21.0.0, SVG Export Plug-In . SVG Version: 6.00 Build 0)  -->
<svg version="1.1" id="Layer_1" xmlns="http://www.w3.org/2000/svg" xmlns:xlink="http://www.w3.org/1999/xlink" x="0px" y="0px"
	 viewBox="0 0 138 150" style="enable-background:new 0 0 138 150;" xml:space="preserve">
<style type="text/css">
	.st0{fill:#5BAF5D;}
	.st1{fill:#66C468;}
	.st2{fill:#76E378;}
	.st3{fill:#4D944F;}
	.st4{fill:#9AC4F0;}
	.st5{fill:#E0E1E2;}
	.st6{fill:#958079;}
	.st7{fill:#444B52;}
	.st8{fill:#6D6E71;}
	.st9{fill:#8D8F92;}
	.st10{fill:#855E3C;}
	.st11{fill:#A37C50;}
	.st12{fill:#805E3A;}
	.st13{fill:#6C4A30;}
	.st14{fill:#FFFFFF;}
	.st15{fill:#FCD75F;}
	.st16{fill:#EB5252;}
	.st17{fill:#B09A7D;}
	.st18{fill:#325743;}
	.st19{fill:#8C6645;}
	.st20{fill:#B58A64;}
	.st21{fill:#6E5036;}
	.st22{fill:#52351C;}
	.st23{fill:#D1D3D4;}
	.st24{fill:#6B6A6E;}
	.st25{fill:#68696B;}
	.st26{fill:#757578;}
	.st27{fill:#737476;}
	.st28{fill:#F1F2F2;}
	.st29{fill:#BABCBD;}
</style>
<g>
	<path class="st23" d="M119.008,143H18.992c-2.757,0-4.992-2.235-4.992-4.992V78.992C14,76.235,16.235,74,18.992,74h100.016
		c2.757,0,4.992,2.235,4.992,4.992v59.016C124,140.765,121.765,143,119.008,143"/>
	<path class="st24" d="M119.008,144H18.992c-3.304,0-5.992-2.689-5.992-5.992V78.992C13,75.688,15.688,73,18.992,73h100.016
		c3.304,0,5.992,2.688,5.992,5.992v59.016C125,141.312,122.312,144,119.008,144 M18.992,75C16.791,75,15,76.791,15,78.992v59.016
		c0,2.201,1.791,3.992,3.992,3.992h100.016c2.201,0,3.992-1.791,3.992-3.992V78.992c0-2.201-1.791-3.992-3.992-3.992H18.992"/>
	<path class="st25" d="M118,138H20c-0.553,0-1-0.447-1-1V80c0-0.553,0.447-1,1-1h98c0.553,0,1,0.447,1,1v57
		C119,137.553,118.553,138,118,138"/>
	<path class="st24" d="M118,139H20c-1.103,0-2-0.897-2-2V80c0-1.103,0.897-2,2-2h98c1.103,0,2,0.898,2,2v57
		C120,138.103,119.103,139,118,139 M20,80v57h98.002L118,80H20"/>
	<path class="st23" d="M119.008,75h-14.007l-2.174,3H118c1.103,0,2,0.898,2,2v57c0,1.103-0.897,2-2,2H58.623l-2.174,3h62.559
		c2.201,0,3.992-1.791,3.992-3.992V78.992C123,76.791,121.209,75,119.008,75"/>
	<path class="st26" d="M119.008,73H106.45l-1.449,2h14.007c2.201,0,3.992,1.791,3.992,3.992v59.016c0,2.201-1.791,3.992-3.992,3.992
		H56.449L55,144h64.008c3.304,0,5.992-2.689,5.992-5.992V78.992C125,75.688,122.312,73,119.008,73"/>
	<polyline class="st27" points="118,80 101.378,80 60.073,137 118.002,137 118,80 	"/>
	<path class="st26" d="M118,78h-15.173l-1.449,2H118l0.002,57H60.073l-1.449,2H118c1.103,0,2-0.897,2-2V80
		C120,78.897,119.103,78,118,78"/>
	<path class="st28" d="M137,146.101v-3.097c0-0.553-0.447-1-1-1H2.001c-0.553,0-1,0.447-1,1v2.372c0,0.433,0.277,0.815,0.688,0.95
		l7.824,2.57c0.101,0.033,0.206,0.05,0.312,0.05h118.369c0.104,0,0.209-0.017,0.309-0.049l8.598-2.797H137z"/>
	<polygon class="st29" points="128.353,148.946 9.665,148.946 1.001,146.101 137.101,146.101 	"/>
	<path class="st24" d="M128.192,149.946H9.825c-0.214,0-0.425-0.034-0.626-0.101l-7.823-2.569c-0.822-0.271-1.375-1.034-1.375-1.9
		v-2.372c0-1.103,0.897-2,2-2H136c1.103,0,2,0.897,2,2v2.373c0,0.864-0.552,1.628-1.373,1.899l-7.81,2.57
		C128.617,149.912,128.406,149.946,128.192,149.946z M2.001,143.004v2.372l7.824,2.57h118.367l7.808-2.569v-2.373H2.001z"/>
</g>
</svg>
