<?xml version="1.0" encoding="utf-8"?>
<!-- Generator: Adobe Illustrator 21.0.0, SVG Export Plug-In . SVG Version: 6.00 Build 0)  -->
<svg version="1.1" id="Layer_1" xmlns="http://www.w3.org/2000/svg" xmlns:xlink="http://www.w3.org/1999/xlink" x="0px" y="0px"
	 viewBox="0 0 130 150" style="enable-background:new 0 0 130 150;" xml:space="preserve">
<style type="text/css">
	.st0{fill:#FFFFFF;}
	.st1{fill:#6D6E71;}
	.st2{fill:#5A5B5E;}
	.st3{fill:#AEB0B1;}
	.st4{fill:#FFFFFF;stroke:#58595B;stroke-width:4;stroke-linecap:round;stroke-linejoin:round;stroke-miterlimit:10;}
	.st5{fill:#58595B;}
	.st6{fill:#A8724B;}
	.st7{fill:#916341;}
	.st8{fill:#754921;}
	.st9{fill:#FF6B6B;}
	.st10{fill:#FFD57E;}
	.st11{fill:#D9FF93;}
	.st12{fill:#E8E8E8;}
	.st13{fill:#85808A;}
	.st14{fill:#1787FF;}
	.st15{fill:#4DE69F;}
	.st16{fill:#C92A2A;}
	.st17{fill:#00386E;}
	.st18{fill:#231F20;}
	.st19{fill:#CCCCCC;}
	.st20{fill:#A12222;}
	.st21{fill:#002D58;}
	.st22{fill:#1C191A;}
	.st23{fill:#851616;}
	.st24{fill:#B01E1E;}
	.st25{fill:#E32626;}
	.st26{fill:#991919;}
	.st27{fill:#591300;}
	.st28{fill:#FF880F;}
	.st29{fill:#D16F0C;}
	.st30{fill:#F3D9D9;}
	.st31{fill:#ECC6C6;}
	.st32{fill:#E6B6B6;}
	.st33{fill:#F1D2D2;}
	.st34{fill:#E5B0B0;}
	.st35{fill:#D3AEAA;}
	.st36{fill:#F0CFCF;}
	.st37{fill:#F2D4D4;}
	.st38{fill:#B3F294;}
	.st39{fill:#99C4FF;}
	.st40{fill:#D2FFBA;}
	.st41{fill:#BDD9FF;}
	.st42{fill:#7C7E82;}
	.st43{fill:#E06AC6;}
	.st44{fill:#D9B580;}
	.st45{fill:#B556A0;}
	.st46{fill:#AD9166;}
	.st47{fill:#805075;}
	.st48{fill:#7E40B8;}
	.st49{fill:#A9FF8A;}
	.st50{fill:#FFFEA2;}
	.st51{fill:#5CFFEC;}
	.st52{fill:#6B92ED;}
	.st53{fill:#A398E7;}
	.st54{fill:#7F75BD;}
	.st55{fill:#FF564C;}
	.st56{fill:#8A81C4;}
	.st57{fill:#585082;}
	.st58{fill:#339CEE;}
	.st59{fill:#CFCFCF;}
	.st60{fill:#3E314D;}
	.st61{fill:#CF170E;}
</style>
<g>
	<path class="st52" d="M15,125.5C15,109.76,27.76,97,43.5,97c1.729,0,3.42,0.163,5.065,0.458C43.647,93.423,37.357,91,30.5,91
		C14.76,91,2,103.76,2,119.5c0,14.01,10.113,25.651,23.435,28.042C19.065,142.315,15,134.383,15,125.5z"/>
</g>
<g>
	<path class="st52" d="M84,125.5C84,109.76,96.76,97,112.5,97c1.729,0,3.42,0.163,5.065,0.458C112.647,93.423,106.357,91,99.5,91
		C83.76,91,71,103.76,71,119.5c0,14.01,10.113,25.651,23.435,28.042C88.065,142.315,84,134.383,84,125.5z"/>
</g>
<g>
	<path class="st0" d="M30.5,97c-1.104,0-2,0.896-2,2s0.896,2,2,2c10.201,0,18.5,8.299,18.5,18.5c0,1.104,0.896,2,2,2s2-0.896,2-2
		C53,107.094,42.906,97,30.5,97z"/>
	<path class="st0" d="M129.955,116.576l-0.215-0.993c-0.228-1.767-0.598-3.49-1.116-5.149l-11.669-53.857
		c-0.125-0.575-0.497-1.066-1.017-1.343c-0.52-0.277-1.136-0.31-1.682-0.091l-5,2c-1.025,0.41-1.524,1.574-1.114,2.6
		c0.411,1.025,1.573,1.527,2.601,1.114l2.803-1.122l8.504,39.25C116.467,92.854,108.425,89,99.5,89
		c-11.238,0-21.07,6.115-26.361,15.188c-5.291-1.544-11.017-1.541-16.28-0.001C51.569,95.114,41.738,89,30.5,89
		c-8.925,0-16.967,3.854-22.55,9.985l8.504-39.25l2.803,1.122c1.026,0.412,2.189-0.089,2.601-1.114
		c0.41-1.025-0.089-2.189-1.114-2.6l-5-2c-0.545-0.217-1.161-0.186-1.682,0.091c-0.52,0.276-0.892,0.768-1.017,1.343L1.376,110.434
		c-0.518,1.66-0.888,3.383-1.116,5.149l-0.215,0.993c-0.069,0.318-0.05,0.632,0.028,0.927C0.03,118.164,0,118.828,0,119.5
		C0,136.317,13.683,150,30.5,150S61,136.317,61,119.5c0-4.139-0.832-8.086-2.333-11.688c4.111-1.07,8.53-1.073,12.665,0.002
		C69.832,111.415,69,115.362,69,119.5c0,16.817,13.683,30.5,30.5,30.5s30.5-13.683,30.5-30.5c0-0.672-0.03-1.336-0.073-1.997
		C130.005,117.208,130.024,116.894,129.955,116.576z M30.5,146C15.888,146,4,134.112,4,119.5c0-1.09,0.074-2.161,0.202-3.217
		l1.039-4.797C8.646,100.78,18.68,93,30.5,93C45.112,93,57,104.888,57,119.5S45.112,146,30.5,146z M99.5,146
		C84.888,146,73,134.112,73,119.5S84.888,93,99.5,93c11.82,0,21.854,7.78,25.258,18.486l1.039,4.797
		c0.128,1.055,0.202,2.127,0.202,3.217C126,134.112,114.112,146,99.5,146z"/>
	<path class="st0" d="M99.5,97c-1.104,0-2,0.896-2,2s0.896,2,2,2c10.201,0,18.5,8.299,18.5,18.5c0,1.104,0.896,2,2,2s2-0.896,2-2
		C122,107.094,111.906,97,99.5,97z"/>
</g>
</svg>
